<svg width="590" height="142" viewBox="0 0 590 142" fill="none" xmlns="http://www.w3.org/2000/svg">
<rect y="70.7107" width="100" height="100" rx="10" transform="rotate(-45 0 70.7107)" fill="#FFDE59" fill-opacity="0.8"/>
<rect x="58" y="70.7107" width="100" height="100" rx="10" transform="rotate(-45 58 70.7107)" fill="#FF914D" fill-opacity="0.7"/>
<path d="M237.031 60.5H232.188C231.901 59.1068 231.4 57.8828 230.684 56.8281C229.98 55.7734 229.121 54.888 228.105 54.1719C227.103 53.4427 225.99 52.8958 224.766 52.5312C223.542 52.1667 222.266 51.9844 220.938 51.9844C218.516 51.9844 216.322 52.5964 214.355 53.8203C212.402 55.0443 210.846 56.8477 209.688 59.2305C208.542 61.6133 207.969 64.5365 207.969 68C207.969 71.4635 208.542 74.3867 209.688 76.7695C210.846 79.1523 212.402 80.9557 214.355 82.1797C216.322 83.4036 218.516 84.0156 220.938 84.0156C222.266 84.0156 223.542 83.8333 224.766 83.4687C225.99 83.1042 227.103 82.5638 228.105 81.8477C229.121 81.1185 229.98 80.2266 230.684 79.1719C231.4 78.1042 231.901 76.8802 232.188 75.5H237.031C236.667 77.5443 236.003 79.3737 235.039 80.9883C234.076 82.6029 232.878 83.9766 231.445 85.1094C230.013 86.2292 228.405 87.082 226.621 87.668C224.85 88.2539 222.956 88.5469 220.938 88.5469C217.526 88.5469 214.492 87.7135 211.836 86.0469C209.18 84.3802 207.09 82.0104 205.566 78.9375C204.043 75.8646 203.281 72.2187 203.281 68C203.281 63.7812 204.043 60.1354 205.566 57.0625C207.09 53.9896 209.18 51.6198 211.836 49.9531C214.492 48.2865 217.526 47.4531 220.938 47.4531C222.956 47.4531 224.85 47.7461 226.621 48.332C228.405 48.918 230.013 49.7773 231.445 50.9102C232.878 52.0299 234.076 53.3971 235.039 55.0117C236.003 56.6133 236.667 58.4427 237.031 60.5ZM247.202 99.25C246.421 99.25 245.724 99.1849 245.112 99.0547C244.5 98.9375 244.077 98.8203 243.843 98.7031L245.015 94.6406C246.134 94.9271 247.124 95.0313 247.983 94.9531C248.843 94.875 249.604 94.4909 250.269 93.8008C250.946 93.1237 251.564 92.0234 252.124 90.5L252.983 88.1563L241.89 58H246.89L255.171 81.9062H255.483L263.765 58H268.765L256.03 92.375C255.457 93.9245 254.748 95.207 253.901 96.2227C253.055 97.2513 252.072 98.013 250.952 98.5078C249.845 99.0026 248.595 99.25 247.202 99.25ZM274.849 99.25V58H279.302V62.7656H279.849C280.187 62.2448 280.656 61.5807 281.255 60.7734C281.867 59.9531 282.739 59.224 283.872 58.5859C285.018 57.9349 286.567 57.6094 288.521 57.6094C291.047 57.6094 293.273 58.2409 295.2 59.5039C297.127 60.7669 298.631 62.5573 299.712 64.875C300.793 67.1927 301.333 69.9271 301.333 73.0781C301.333 76.2552 300.793 79.0091 299.712 81.3398C298.631 83.6576 297.134 85.4544 295.22 86.7305C293.306 87.9935 291.099 88.625 288.599 88.625C286.672 88.625 285.129 88.306 283.97 87.668C282.811 87.0169 281.919 86.2812 281.294 85.4609C280.669 84.6276 280.187 83.9375 279.849 83.3906H279.458V99.25H274.849ZM279.38 73C279.38 75.2656 279.712 77.2643 280.376 78.9961C281.04 80.7148 282.01 82.0625 283.286 83.0391C284.562 84.0026 286.125 84.4844 287.974 84.4844C289.901 84.4844 291.509 83.9766 292.798 82.9609C294.1 81.9323 295.076 80.5521 295.728 78.8203C296.392 77.0755 296.724 75.1354 296.724 73C296.724 70.8906 296.398 68.9896 295.747 67.2969C295.109 65.5911 294.139 64.2435 292.837 63.2539C291.548 62.2513 289.927 61.75 287.974 61.75C286.099 61.75 284.523 62.2253 283.247 63.1758C281.971 64.1133 281.007 65.4284 280.356 67.1211C279.705 68.8008 279.38 70.7604 279.38 73ZM312.974 69.9531V88H308.364V48H312.974V62.6875H313.364C314.067 61.138 315.122 59.9076 316.528 58.9961C317.948 58.0716 319.836 57.6094 322.192 57.6094C324.237 57.6094 326.027 58.0195 327.563 58.8398C329.1 59.6471 330.291 60.8906 331.138 62.5703C331.997 64.237 332.427 66.3594 332.427 68.9375V88H327.817V69.25C327.817 66.8672 327.199 65.0247 325.962 63.7227C324.738 62.4076 323.039 61.75 320.864 61.75C319.354 61.75 318 62.069 316.802 62.707C315.617 63.3451 314.679 64.276 313.989 65.5C313.312 66.724 312.974 68.2083 312.974 69.9531ZM353.438 88.625C350.547 88.625 348.053 87.987 345.957 86.7109C343.874 85.4219 342.266 83.625 341.133 81.3203C340.013 79.0026 339.453 76.3073 339.453 73.2344C339.453 70.1615 340.013 67.4531 341.133 65.1094C342.266 62.7526 343.841 60.9167 345.859 59.6016C347.891 58.2734 350.26 57.6094 352.969 57.6094C354.531 57.6094 356.074 57.8698 357.598 58.3906C359.121 58.9115 360.508 59.7578 361.758 60.9297C363.008 62.0885 364.004 63.625 364.746 65.5391C365.488 67.4531 365.859 69.8099 365.859 72.6094V74.5625H342.734V70.5781H361.172C361.172 68.8854 360.833 67.375 360.156 66.0469C359.492 64.7187 358.542 63.6706 357.305 62.9023C356.081 62.1341 354.635 61.75 352.969 61.75C351.133 61.75 349.544 62.2057 348.203 63.1172C346.875 64.0156 345.853 65.1875 345.137 66.6328C344.421 68.0781 344.063 69.6276 344.063 71.2812V73.9375C344.063 76.2031 344.453 78.1237 345.234 79.6992C346.029 81.2617 347.129 82.4531 348.535 83.2734C349.941 84.0807 351.576 84.4844 353.438 84.4844C354.648 84.4844 355.742 84.3151 356.719 83.9766C357.708 83.625 358.561 83.1042 359.277 82.4141C359.993 81.7109 360.547 80.8385 360.938 79.7969L365.391 81.0469C364.922 82.5573 364.134 83.8854 363.027 85.0312C361.921 86.1641 360.553 87.0495 358.926 87.6875C357.298 88.3125 355.469 88.625 353.438 88.625ZM372.871 88V58H377.324V62.5312H377.637C378.184 61.0469 379.173 59.8424 380.605 58.918C382.038 57.9935 383.652 57.5312 385.449 57.5312C385.788 57.5312 386.211 57.5378 386.719 57.5508C387.227 57.5638 387.611 57.5833 387.871 57.6094V62.2969C387.715 62.2578 387.357 62.1992 386.797 62.1211C386.25 62.0299 385.671 61.9844 385.059 61.9844C383.6 61.9844 382.298 62.2904 381.152 62.9023C380.02 63.5013 379.121 64.3346 378.457 65.4023C377.806 66.457 377.48 67.6615 377.48 69.0156V88H372.871Z" fill="#FFDE59"/>
<path d="M426.147 60.5H421.304C421.017 59.1068 420.516 57.8828 419.8 56.8281C419.097 55.7734 418.237 54.888 417.222 54.1719C416.219 53.4427 415.106 52.8958 413.882 52.5312C412.658 52.1667 411.382 51.9844 410.054 51.9844C407.632 51.9844 405.438 52.5964 403.472 53.8203C401.519 55.0443 399.963 56.8477 398.804 59.2305C397.658 61.6133 397.085 64.5365 397.085 68C397.085 71.4635 397.658 74.3867 398.804 76.7695C399.963 79.1523 401.519 80.9557 403.472 82.1797C405.438 83.4036 407.632 84.0156 410.054 84.0156C411.382 84.0156 412.658 83.8333 413.882 83.4687C415.106 83.1042 416.219 82.5638 417.222 81.8477C418.237 81.1185 419.097 80.2266 419.8 79.1719C420.516 78.1042 421.017 76.8802 421.304 75.5H426.147C425.783 77.5443 425.119 79.3737 424.155 80.9883C423.192 82.6029 421.994 83.9766 420.562 85.1094C419.129 86.2292 417.521 87.082 415.737 87.668C413.966 88.2539 412.072 88.5469 410.054 88.5469C406.642 88.5469 403.608 87.7135 400.952 86.0469C398.296 84.3802 396.206 82.0104 394.683 78.9375C393.159 75.8646 392.397 72.2187 392.397 68C392.397 63.7812 393.159 60.1354 394.683 57.0625C396.206 53.9896 398.296 51.6198 400.952 49.9531C403.608 48.2865 406.642 47.4531 410.054 47.4531C412.072 47.4531 413.966 47.7461 415.737 48.332C417.521 48.918 419.129 49.7773 420.562 50.9102C421.994 52.0299 423.192 53.3971 424.155 55.0117C425.119 56.6133 425.783 58.4427 426.147 60.5ZM442.178 88.7031C440.277 88.7031 438.551 88.3451 437.002 87.6289C435.452 86.8997 434.222 85.8516 433.311 84.4844C432.399 83.1042 431.943 81.4375 431.943 79.4844C431.943 77.7656 432.282 76.3724 432.959 75.3047C433.636 74.224 434.541 73.3776 435.674 72.7656C436.807 72.1536 438.057 71.6979 439.424 71.3984C440.804 71.0859 442.191 70.8385 443.584 70.6563C445.407 70.4219 446.885 70.2461 448.018 70.1289C449.163 69.9987 449.997 69.7839 450.518 69.4844C451.051 69.1849 451.318 68.6641 451.318 67.9219V67.7656C451.318 65.8385 450.791 64.3411 449.736 63.2734C448.695 62.2057 447.113 61.6719 444.99 61.6719C442.79 61.6719 441.064 62.1536 439.814 63.1172C438.564 64.0807 437.686 65.1094 437.178 66.2031L432.803 64.6406C433.584 62.8177 434.626 61.3984 435.928 60.3828C437.243 59.3542 438.675 58.638 440.225 58.2344C441.787 57.8177 443.324 57.6094 444.834 57.6094C445.798 57.6094 446.904 57.7266 448.154 57.9609C449.417 58.1823 450.635 58.6445 451.807 59.3477C452.992 60.0508 453.975 61.112 454.756 62.5312C455.537 63.9505 455.928 65.8516 455.928 68.2344V88H451.318V83.9375H451.084C450.771 84.5885 450.251 85.2852 449.521 86.0273C448.792 86.7695 447.822 87.401 446.611 87.9219C445.4 88.4427 443.923 88.7031 442.178 88.7031ZM442.881 84.5625C444.704 84.5625 446.24 84.2044 447.49 83.4883C448.753 82.7721 449.704 81.8477 450.342 80.7148C450.993 79.582 451.318 78.3906 451.318 77.1406V72.9219C451.123 73.1562 450.693 73.3711 450.029 73.5664C449.378 73.7487 448.623 73.9115 447.764 74.0547C446.917 74.1849 446.09 74.3021 445.283 74.4062C444.489 74.4974 443.844 74.5755 443.35 74.6406C442.152 74.7969 441.032 75.0508 439.99 75.4023C438.962 75.7409 438.128 76.2552 437.49 76.9453C436.865 77.6224 436.553 78.5469 436.553 79.7187C436.553 81.3203 437.145 82.5312 438.33 83.3516C439.528 84.1589 441.045 84.5625 442.881 84.5625ZM468.95 69.9531V88H464.341V58H468.794V62.6875H469.185C469.888 61.1641 470.955 59.9401 472.388 59.0156C473.82 58.0781 475.669 57.6094 477.935 57.6094C479.966 57.6094 481.743 58.026 483.267 58.8594C484.79 59.6797 485.975 60.9297 486.821 62.6094C487.668 64.276 488.091 66.3854 488.091 68.9375V88H483.481V69.25C483.481 66.8932 482.869 65.0573 481.646 63.7422C480.422 62.4141 478.742 61.75 476.606 61.75C475.135 61.75 473.82 62.069 472.661 62.707C471.515 63.3451 470.61 64.276 469.946 65.5C469.282 66.724 468.95 68.2083 468.95 69.9531ZM519.971 58L508.877 88H504.189L493.096 58H498.096L506.377 81.9062H506.689L514.971 58H519.971ZM533.97 88.7031C532.069 88.7031 530.343 88.3451 528.794 87.6289C527.244 86.8997 526.014 85.8516 525.103 84.4844C524.191 83.1042 523.735 81.4375 523.735 79.4844C523.735 77.7656 524.074 76.3724 524.751 75.3047C525.428 74.224 526.333 73.3776 527.466 72.7656C528.599 72.1536 529.849 71.6979 531.216 71.3984C532.596 71.0859 533.983 70.8385 535.376 70.6563C537.199 70.4219 538.677 70.2461 539.81 70.1289C540.955 69.9987 541.789 69.7839 542.31 69.4844C542.843 69.1849 543.11 68.6641 543.11 67.9219V67.7656C543.11 65.8385 542.583 64.3411 541.528 63.2734C540.487 62.2057 538.905 61.6719 536.782 61.6719C534.582 61.6719 532.856 62.1536 531.606 63.1172C530.356 64.0807 529.478 65.1094 528.97 66.2031L524.595 64.6406C525.376 62.8177 526.418 61.3984 527.72 60.3828C529.035 59.3542 530.467 58.638 532.017 58.2344C533.579 57.8177 535.116 57.6094 536.626 57.6094C537.59 57.6094 538.696 57.7266 539.946 57.9609C541.209 58.1823 542.427 58.6445 543.599 59.3477C544.784 60.0508 545.767 61.112 546.548 62.5312C547.329 63.9505 547.72 65.8516 547.72 68.2344V88H543.11V83.9375H542.876C542.563 84.5885 542.043 85.2852 541.313 86.0273C540.584 86.7695 539.614 87.401 538.403 87.9219C537.192 88.4427 535.715 88.7031 533.97 88.7031ZM534.673 84.5625C536.496 84.5625 538.032 84.2044 539.282 83.4883C540.545 82.7721 541.496 81.8477 542.134 80.7148C542.785 79.582 543.11 78.3906 543.11 77.1406V72.9219C542.915 73.1562 542.485 73.3711 541.821 73.5664C541.17 73.7487 540.415 73.9115 539.556 74.0547C538.709 74.1849 537.882 74.3021 537.075 74.4062C536.281 74.4974 535.636 74.5755 535.142 74.6406C533.944 74.7969 532.824 75.0508 531.782 75.4023C530.754 75.7409 529.92 76.2552 529.282 76.9453C528.657 77.6224 528.345 78.5469 528.345 79.7187C528.345 81.3203 528.937 82.5312 530.122 83.3516C531.32 84.1589 532.837 84.5625 534.673 84.5625ZM577.383 64.7187L573.242 65.8906C572.982 65.2005 572.598 64.5299 572.09 63.8789C571.595 63.2148 570.918 62.668 570.059 62.2383C569.199 61.8086 568.099 61.5937 566.758 61.5937C564.922 61.5937 563.392 62.0169 562.168 62.8633C560.957 63.6966 560.352 64.7578 560.352 66.0469C560.352 67.1927 560.768 68.0977 561.602 68.7617C562.435 69.4258 563.737 69.9792 565.508 70.4219L569.961 71.5156C572.643 72.1667 574.642 73.1628 575.957 74.5039C577.272 75.832 577.93 77.5443 577.93 79.6406C577.93 81.3594 577.435 82.8958 576.445 84.25C575.469 85.6042 574.102 86.6719 572.344 87.4531C570.586 88.2344 568.542 88.625 566.211 88.625C563.151 88.625 560.618 87.9609 558.613 86.6328C556.608 85.3047 555.339 83.3646 554.805 80.8125L559.18 79.7187C559.596 81.3333 560.384 82.5443 561.543 83.3516C562.715 84.1589 564.245 84.5625 566.133 84.5625C568.281 84.5625 569.987 84.1068 571.25 83.1953C572.526 82.2708 573.164 81.1641 573.164 79.875C573.164 78.8333 572.799 77.9609 572.07 77.2578C571.341 76.5417 570.221 76.0078 568.711 75.6562L563.711 74.4844C560.964 73.8333 558.945 72.8242 557.656 71.457C556.38 70.0768 555.742 68.3516 555.742 66.2812C555.742 64.5885 556.217 63.0911 557.168 61.7891C558.132 60.487 559.44 59.4648 561.094 58.7227C562.76 57.9805 564.648 57.6094 566.758 57.6094C569.727 57.6094 572.057 58.2604 573.75 59.5625C575.456 60.8646 576.667 62.5833 577.383 64.7187Z" fill="#FF914D"/>
</svg>
