<svg width="1512" height="982" viewBox="0 0 1512 982" fill="none" xmlns="http://www.w3.org/2000/svg">
<rect x="0.0213623" y="0.0162964" width="1512" height="982" fill="#1F1F1F"/>
<line x1="170.021" y1="982.033" x2="170.021" stroke="#2F291C" stroke-width="2"/>
<line y1="50.1966" x2="1512.04" y2="50.1966" stroke="#222222"/>
<line y1="110.197" x2="1512.04" y2="110.197" stroke="#222222"/>
<line y1="170.197" x2="1512.04" y2="170.197" stroke="#222222"/>
<line y1="230.197" x2="1512.04" y2="230.197" stroke="#222222"/>
<line y1="290.197" x2="1512.04" y2="290.197" stroke="#222222"/>
<line y1="350.197" x2="1512.04" y2="350.197" stroke="#222222"/>
<line y1="410.197" x2="1512.04" y2="410.197" stroke="#222222"/>
<line y1="-0.5" x2="1512.04" y2="-0.5" transform="matrix(1 0 0 -1 0 470.697)" stroke="#222222"/>
<line y1="-0.5" x2="1512.04" y2="-0.5" transform="matrix(1 0 0 -1 0 530.697)" stroke="#222222"/>
<line y1="-0.5" x2="1512.04" y2="-0.5" transform="matrix(1 0 0 -1 0 590.697)" stroke="#222222"/>
<line y1="-0.5" x2="1512.04" y2="-0.5" transform="matrix(1 0 0 -1 0 650.697)" stroke="#222222"/>
<line y1="-0.5" x2="1512.04" y2="-0.5" transform="matrix(1 0 0 -1 0 710.697)" stroke="#222222"/>
<line y1="-0.5" x2="1512.04" y2="-0.5" transform="matrix(1 0 0 -1 0 770.697)" stroke="#222222"/>
<line y1="-0.5" x2="1512.04" y2="-0.5" transform="matrix(1 0 0 -1 0 830.697)" stroke="#222222"/>
<line y1="-0.5" x2="1512.04" y2="-0.5" transform="matrix(1 0 0 -1 0 890.697)" stroke="#222222"/>
<line y1="-0.5" x2="1512.04" y2="-0.5" transform="matrix(1 0 0 -1 0 950.697)" stroke="#222222"/>
</svg>
